<svg width="800" height="450" viewBox="0 0 800 450" fill="none" xmlns="http://www.w3.org/2000/svg">
  <!-- Background -->
  <rect width="800" height="450" fill="#0a0a0a"/>
  
  <!-- Header -->
  <rect x="0" y="0" width="800" height="60" fill="#1a1a1a"/>
  
  <!-- Logo/Title -->
  <text x="50" y="35" font-family="Arial, sans-serif" font-size="24" font-weight="bold" fill="#ffffff">Antonio Pedro</text>
  
  <!-- Navigation -->
  <rect x="600" y="15" width="80" height="30" fill="#333" rx="5"/>
  <rect x="690" y="15" width="80" height="30" fill="#df2f29" rx="5"/>
  
  <!-- Hero Section -->
  <rect x="50" y="80" width="700" height="250" fill="#1a1a1a" rx="10"/>
  
  <!-- Main Content -->
  <text x="400" y="140" font-family="Arial, sans-serif" font-size="42" font-weight="bold" fill="#ffffff" text-anchor="middle">Desenvolvedor Full-Stack</text>
  
  <text x="400" y="180" font-family="Arial, sans-serif" font-size="18" fill="#888888" text-anchor="middle">Especialista em React, Next.js e TypeScript</text>
  
  <!-- Description -->
  <text x="400" y="210" font-family="Arial, sans-serif" font-size="16" fill="#666666" text-anchor="middle">Criando experiências web modernas e responsivas</text>
  
  <!-- CTA Buttons -->
  <rect x="250" y="240" width="150" height="40" fill="#df2f29" rx="20"/>
  <text x="325" y="265" font-family="Arial, sans-serif" font-size="16" font-weight="bold" fill="#ffffff" text-anchor="middle">Ver Projetos</text>
  
  <rect x="420" y="240" width="150" height="40" fill="transparent" stroke="#df2f29" stroke-width="2" rx="20"/>
  <text x="495" y="265" font-family="Arial, sans-serif" font-size="16" font-weight="bold" fill="#df2f29" text-anchor="middle">Contato</text>
  
  <!-- Tech Stack Section -->
  <rect x="50" y="350" width="700" height="80" fill="#1a1a1a" rx="10"/>
  
  <!-- Tech Icons -->
  <circle cx="120" cy="390" r="15" fill="#61dafb"/>
  <circle cx="200" cy="390" r="15" fill="#000000"/>
  <circle cx="280" cy="390" r="15" fill="#3178c6"/>
  <circle cx="360" cy="390" r="15" fill="#06b6d4"/>
  <circle cx="440" cy="390" r="15" fill="#f7df1e"/>
  <circle cx="520" cy="390" r="15" fill="#764abc"/>
  <circle cx="600" cy="390" r="15" fill="#e34f26"/>
  <circle cx="680" cy="390" r="15" fill="#1572b6"/>
  
  <!-- Tech Labels -->
  <text x="120" y="415" font-family="Arial, sans-serif" font-size="10" fill="#888888" text-anchor="middle">React</text>
  <text x="200" y="415" font-family="Arial, sans-serif" font-size="10" fill="#888888" text-anchor="middle">Next.js</text>
  <text x="280" y="415" font-family="Arial, sans-serif" font-size="10" fill="#888888" text-anchor="middle">TypeScript</text>
  <text x="360" y="415" font-family="Arial, sans-serif" font-size="10" fill="#888888" text-anchor="middle">Tailwind</text>
  <text x="440" y="415" font-family="Arial, sans-serif" font-size="10" fill="#888888" text-anchor="middle">JavaScript</text>
  <text x="520" y="415" font-family="Arial, sans-serif" font-size="10" fill="#888888" text-anchor="middle">Node.js</text>
  <text x="600" y="415" font-family="Arial, sans-serif" font-size="10" fill="#888888" text-anchor="middle">HTML</text>
  <text x="680" y="415" font-family="Arial, sans-serif" font-size="10" fill="#888888" text-anchor="middle">CSS</text>
</svg>
